<?xml version="1.0" encoding="UTF-8"?>
<svg id="Layer_1" data-name="Layer 1" xmlns="http://www.w3.org/2000/svg" viewBox="0 0 187.34 187.34">
  <defs>
    <style>
      .cls-1 {
        fill: #0a192f;
      }
    </style>
  </defs>
  <path class="cls-1" d="M167.8,54.31l-34.76-34.77c-3.93-3.92-9.24-6.13-14.79-6.13h-49.17c-5.54,0-10.86,2.21-14.78,6.13L19.53,54.31c-3.92,3.92-6.12,9.23-6.12,14.78v49.17c0,5.54,2.2,10.86,6.12,14.78l34.77,34.77c3.92,3.92,9.24,6.12,14.78,6.12h49.17c5.55,0,10.86-2.2,14.79-6.12l34.76-34.77c3.92-3.92,6.13-9.24,6.13-14.78v-49.17c0-5.55-2.21-10.86-6.13-14.78ZM32.74,117.86c0,2.89-2.34,5.23-5.23,5.23s-5.23-2.34-5.23-5.23v-48.2c0-2.89,2.34-5.23,5.23-5.23,1.45,0,2.75.59,3.7,1.53.95.95,1.53,2.26,1.53,3.7v48.2ZM77.38,155.58h-15.95L109.79,31.77h16.12l-48.53,123.81ZM165.05,117.69c0,2.89-2.34,5.23-5.23,5.23s-5.23-2.34-5.23-5.23v-48.21c0-2.89,2.34-5.23,5.23-5.23,1.44,0,2.75.59,3.7,1.53.94.95,1.53,2.26,1.53,3.7v48.21Z"/>
  <path d="M180.63,48.16L139.18,6.71c-4.33-4.33-10.08-6.71-16.2-6.71h-58.62c-6.12,0-11.87,2.38-16.2,6.71L6.71,48.16c-4.33,4.33-6.71,10.08-6.71,16.2v58.62c0,6.12,2.38,11.87,6.71,16.2l41.45,41.45c4.33,4.33,10.08,6.71,16.2,6.71h58.62c6.12,0,11.87-2.38,16.2-6.71l41.45-41.45c4.33-4.33,6.71-10.08,6.71-16.2v-58.62c0-6.12-2.38-11.87-6.71-16.2ZM183.34,122.98c0,5.05-1.97,9.8-5.54,13.37l-41.45,41.46c-3.57,3.57-8.32,5.53-13.37,5.53h-58.62c-5.05,0-9.8-1.96-13.37-5.53l-41.46-41.46c-3.57-3.57-5.53-8.32-5.53-13.37v-58.62c0-5.05,1.96-9.8,5.53-13.37L50.99,9.54c3.57-3.57,8.32-5.54,13.37-5.54h58.62c5.05,0,9.8,1.97,13.37,5.54l41.45,41.45c3.57,3.57,5.54,8.32,5.54,13.37v58.62Z"/>
</svg>